# xmcd
#
# Track frame offsets:
#	150
#	14426
#	31852
#	48576
#	68520
#	81156
#	91966
#	103460
#	117773
#	130708
#	143703
#	158019
#	171996
#	187563
#	205087
#	216775
#	232471
#	251321
#	266833
#	279014
#
# Disc length: 3791 seconds
#
# Revision: 1
# Processed by: cddbd v1.5.2PL0 Copyright (c) Steve Scherf et al.
# Submitted via: EasyCDDAExtractor 16.0.6.1
#
DISCID=100ecd14
DTITLE=Συλλογικός δίσκος - Οι χρυσές φωνές 2
DYEAR=2012
DGENRE=Ποικίλη
TTITLE0=Γλυκερία - Ό,τι και να γίνει θυμήσου [Στέλ. Φωτιάδης-Πάνος Φαλάρας]
TTITLE1=Καράλης Κώστας - Σπασμένο καράβι [Γ. Σπανός-Γιάννης Σκαρίμπας]
TTITLE2=Δήμου Ελένη - Μη γυρίσεις [Χ. κ Π. Κατσιμίχας-Δ. Μπουρμάς, Β. Μπετίνη]
TTITLE3=Τσανακλίδου Τάνια - Γράμμα στον κύριο Νίκο Γκάτσο [Γιώργος Ανδρέου]
TTITLE4=Μητσιάς Μανώλης - Επειδή σ' αγαπώ [Γ. Σπανός-Λ. Παπαδόπουλος]
TTITLE5=Πρωτοψάλτη Άλκηστις - Δρόμοι που χάθηκα [Μ. Θεοδωράκης-Τ. Λειβαδίτης]
TTITLE6=Αρλέτα - Τώρα που πας στην ξενητειά [Μ. Χατζιδάκις-Ν. Γκάτσος]
TTITLE7=Φαραντούρη Μαρία - Ήτανε μιά φορά [Στ. Ξαρχάκος-Κώστας Φέρρης]
TTITLE8=Αρβανιτάκη Ελευθερία-Ξυδάκης Νίκος - Στην αρχή του τραγουδιού [Νίκος Ξ
TTITLE8=υδάκης-Κώστας Γουδής]
TTITLE9=Μοσχολιού Βίκυ - Άνθρωποι μονάχοι [Γ. Σπανός-Γιάννης Καλαμίτσης]
TTITLE10=Βιολάρης Μιχάλης - Χαλάλιν του [Μ. Βιολάρης-Ανδρέας Γρηγορίου]
TTITLE11=Καζαντζίδης Στέλιος - Το αγριολούλουδο [Χρ. Νικολόπουλος-Πυθαγόρας]
TTITLE12=Λίντα Μαίρη - Μοιάζεις και συ σαν θάλασσα [Μανώλης Χιώτης]
TTITLE13=Πουλόπουλος Γιάννης - Όποια και νά 'σαι [Απ΄Καλδάρας-Γιώργος Σαμολαδά
TTITLE13=ς]
TTITLE14=Αγγελόπουλος Μανώλης - Όσο αξίζεις εσύ [Απόστολος Καλδάρας]
TTITLE15=Νίνου Μαρίκα-Τσιτσάνης Βασίλης - Ο μήνας έχει εννιά [Μιχ. Σουγιούλ-Γι
TTITLE15=ώργος Τζαβέλλας]
TTITLE16=Μαρούδας Τώνης - Μάτια μου [Γιώργος Μουζάκης]
TTITLE17=Κανελλίδου Αλέκα - Αναπνοή μου [Γ.Μουζάκης/Γ.Ασημακόπουλος-Π.Παπαδούκ
TTITLE17=ας/Β.Σπ)λος]
TTITLE18=Μάνου Αφροδίτη - Καλοκαιράκι [Σπήλιος Μεντής]
TTITLE19=Δανάη - Όπου κι αν πας θα θυμάσαι [Γ. Μουζάκης-Κ. Κοφινιώτης]
EXTD=
EXTT0=
EXTT1=
EXTT2=
EXTT3=
EXTT4=
EXTT5=
EXTT6=
EXTT7=
EXTT8=
EXTT9=
EXTT10=
EXTT11=
EXTT12=
EXTT13=
EXTT14=
EXTT15=
EXTT16=
EXTT17=
EXTT18=
EXTT19=
PLAYORDER=
